<?xml version="1.0" encoding="UTF-8" standalone="no"?>
<!DOCTYPE svg PUBLIC "-//W3C//DTD SVG 1.1//EN" "http://www.w3.org/Graphics/SVG/1.1/DTD/svg11.dtd">
<svg width="100%" height="100%" viewBox="0 0 100 100" version="1.1" xmlns="http://www.w3.org/2000/svg" xmlns:xlink="http://www.w3.org/1999/xlink" xml:space="preserve" xmlns:serif="http://www.serif.com/" style="fill-rule:evenodd;clip-rule:evenodd;stroke-linejoin:round;stroke-miterlimit:2;">
    <g id="_6" serif:id="6" transform="matrix(1.23713,0,0,1.23713,-11.8564,-11.8564)">
        <g transform="matrix(1,0,0,1,22.5943,25.4314)">
            <circle cx="44.369" cy="50.014" r="8.482" style="fill:white;"/>
        </g>
        <g transform="matrix(1,0,0,1,-11.3331,25.4314)">
            <circle cx="44.369" cy="50.014" r="8.482" style="fill:white;"/>
        </g>
        <g transform="matrix(1,0,0,1,22.5943,-25.4597)">
            <circle cx="44.369" cy="50.014" r="8.482" style="fill:white;"/>
        </g>
        <g transform="matrix(1,0,0,1,22.5943,-0.0141237)">
            <circle cx="44.369" cy="50.014" r="8.482" style="fill:white;"/>
        </g>
        <g transform="matrix(1,0,0,1,-11.3331,-25.4597)">
            <circle cx="44.369" cy="50.014" r="8.482" style="fill:white;"/>
        </g>
        <g transform="matrix(1,0,0,1,-11.3331,-0.0141237)">
            <circle cx="44.369" cy="50.014" r="8.482" style="fill:white;"/>
        </g>
    </g>
</svg>
