<?xml version="1.0" encoding="UTF-8" standalone="no"?>
<!DOCTYPE svg PUBLIC "-//W3C//DTD SVG 1.1//EN" "http://www.w3.org/Graphics/SVG/1.1/DTD/svg11.dtd">
<svg width="100%" height="100%" viewBox="0 0 512 512" version="1.1" xmlns="http://www.w3.org/2000/svg" xmlns:xlink="http://www.w3.org/1999/xlink" xml:space="preserve" xmlns:serif="http://www.serif.com/" style="fill-rule:evenodd;clip-rule:evenodd;stroke-linejoin:round;stroke-miterlimit:2;">
    <g transform="matrix(1.35085,0,0,1.35085,-164.592,-142.558)">
        <path d="M302.116,118.749C303.227,114.559 307.019,111.641 311.354,111.641C315.689,111.641 319.481,114.559 320.592,118.749L351.234,234.38L470.675,227.791C475.003,227.553 478.95,230.257 480.29,234.38C481.629,238.503 480.026,243.011 476.384,245.362L375.882,310.237L419.057,421.796C420.622,425.838 419.269,430.428 415.762,432.976C412.255,435.524 407.472,435.392 404.111,432.655L311.354,357.119L218.597,432.655C215.236,435.392 210.453,435.524 206.946,432.976C203.439,430.428 202.086,425.838 203.651,421.796L246.826,310.237L146.324,245.362C142.682,243.011 141.079,238.503 142.418,234.38C143.758,230.257 147.705,227.553 152.033,227.791L271.474,234.38L302.116,118.749Z" style="fill:white;"/>
    </g>
</svg>
