<?xml version="1.0" encoding="UTF-8" standalone="no"?>
<!DOCTYPE svg PUBLIC "-//W3C//DTD SVG 1.1//EN" "http://www.w3.org/Graphics/SVG/1.1/DTD/svg11.dtd">
<svg width="100%" height="100%" viewBox="0 0 250 250" version="1.1" xmlns="http://www.w3.org/2000/svg" xmlns:xlink="http://www.w3.org/1999/xlink" xml:space="preserve" xmlns:serif="http://www.serif.com/" style="fill-rule:evenodd;clip-rule:evenodd;stroke-linecap:round;stroke-linejoin:round;stroke-miterlimit:1.5;">
    <g transform="matrix(-1.1062,0,0,1.1062,270.465,-15.8005)">
        <path d="M151.518,25.203C136.928,58.026 81.832,81.186 105.764,92.773C145.431,80.365 257.016,174.409 169.865,221.553L80.135,221.553C26.273,165.612 101.318,95.727 101.318,95.727C101.318,70.965 65.05,82.357 62.075,65.456L151.518,25.203ZM131.499,134.34C112.389,134.34 96.874,149.856 96.874,168.966C96.874,188.076 112.389,203.591 131.499,203.591C150.61,203.591 166.125,188.076 166.125,168.966C166.125,149.856 150.61,134.34 131.499,134.34Z" style="fill:none;stroke:white;stroke-width:10.42px;"/>
    </g>
    <g transform="matrix(1.1062,0,0,1.1062,-11.3137,-16.162)">
        <path d="M120.957,167.573C119.743,169.471 117.216,170.026 115.318,168.812C113.42,167.599 112.865,165.072 114.078,163.174C116.915,158.739 116.925,158.874 119.881,154.644C121.171,152.797 123.718,152.345 125.565,153.635C127.412,154.926 127.864,157.473 126.573,159.32C123.713,163.413 123.701,163.281 120.957,167.573Z" style="fill:white;"/>
    </g>
    <g transform="matrix(1.1062,0,0,1.1062,-4.99796,1.79213)">
        <path d="M120.957,167.573C119.743,169.471 117.216,170.026 115.318,168.812C113.42,167.599 112.865,165.072 114.078,163.174C116.915,158.739 116.925,158.874 119.881,154.644C121.171,152.797 123.718,152.345 125.565,153.635C127.412,154.926 127.864,157.473 126.573,159.32C123.713,163.413 123.701,163.281 120.957,167.573Z" style="fill:white;"/>
    </g>
</svg>
